<!DOCTYPE svg PUBLIC "-//W3C//DTD SVG 1.1//EN" "http://www.w3.org/Graphics/SVG/1.1/DTD/svg11.dtd">
<!-- Uploaded to: SVG Repo, www.svgrepo.com, Transformed by: SVG Repo Mixer Tools -->
<svg width="256px" height="256px" viewBox="-4.8 -4.8 41.60 41.60" enable-background="new 0 0 32 32" version="1.1" xml:space="preserve" xmlns="http://www.w3.org/2000/svg" xmlns:xlink="http://www.w3.org/1999/xlink" fill="#000000">
<g id="SVGRepo_bgCarrier" stroke-width="0">
<path transform="translate(-4.8, -4.8), scale(1.3)" d="M16,31.60287213112627C18.678623015593683,31.62644491685231,19.957654241269882,28.187021075650804,22.136561207473278,26.62883579509994C24.05989635086675,25.253415661754907,26.495231716543735,24.731782061975288,28.072109484944768,22.9698356608195C29.843777293839327,20.99023788699164,31.58339681688803,18.65580737404062,31.648981595677988,16C31.714819642089186,13.333936739936645,30.095082021163318,10.904783322002894,28.421326643116778,8.82854371890426C26.8889729340726,6.927708328976607,24.790284329684358,5.613325199811628,22.530508323439534,4.688827784551288C20.45962469927685,3.8416081696192657,18.234922845967297,3.639801205922856,16,3.746852284031254C13.842115929311232,3.8502132643071483,11.630547558144176,4.117531294239141,9.820969300610681,5.29760488712984C8.05097058834012,6.451867617191608,7.458323952490228,8.685242067314887,6.033850244047617,10.246040755616761C4.136691969294997,12.324760867602757,0.7755736123895578,13.279947372456402,0.05335444424833469,15.999999999999996C-0.6592413994589306,18.683808852707674,0.5250769409879945,21.812494082344763,2.4250992592906293,23.83747259687099C4.273526768889898,25.807463136740825,7.580631006091619,25.18002343900757,9.925481785620956,26.521374178807065C12.256663999892362,27.854905939130006,13.31445370184432,31.579238418179262,16,31.60287213112627" fill="#f8f4fd" strokewidth="0"/>
</g>
<g id="SVGRepo_tracerCarrier" stroke-linecap="round" stroke-linejoin="round"/>
<g id="SVGRepo_iconCarrier"> <g id="Layer_2"/> <g id="Layer_3"/> <g id="Layer_4"/> <g id="Layer_5"/> <g id="Layer_6"/> <g id="Layer_7"/> <g id="Layer_8"/> <g id="Layer_9"/> <g id="Layer_10"/> <g id="Layer_11"/> <g id="Layer_12"/> <g id="Layer_13"/> <g id="Layer_14"/> <g id="Layer_15"/> <g id="Layer_16"/> <g id="Layer_17"/> <g id="Layer_18"/> <g id="Layer_19"/> <g id="Layer_20"/> <g id="Layer_21"> <g> <path d="M26,16c0,5.5-4.5,10-10,10S6,21.5,6,16S10.5,6,16,6S26,10.5,26,16z" fill="#5b05d4"/> </g> <g> <path d="M16,1c-0.6,0-1,0.4-1,1v2c0,0.6,0.4,1,1,1s1-0.4,1-1V2C17,1.4,16.6,1,16,1z" fill="#00287f"/> <path d="M16,27c-0.6,0-1,0.4-1,1v2c0,0.6,0.4,1,1,1s1-0.4,1-1v-2C17,27.4,16.6,27,16,27z" fill="#00287f"/> <path d="M30,15h-2c-0.6,0-1,0.4-1,1s0.4,1,1,1h2c0.6,0,1-0.4,1-1S30.6,15,30,15z" fill="#00287f"/> <path d="M4,15H2c-0.6,0-1,0.4-1,1s0.4,1,1,1h2c0.6,0,1-0.4,1-1S4.6,15,4,15z" fill="#00287f"/> <path d="M25.2,5.4l-1.4,1.4c-0.4,0.4-0.4,1,0,1.4c0.2,0.2,0.5,0.3,0.7,0.3s0.5-0.1,0.7-0.3l1.4-1.4 c0.4-0.4,0.4-1,0-1.4S25.6,5,25.2,5.4z" fill="#00287f"/> <path d="M6.8,23.8l-1.4,1.4c-0.4,0.4-0.4,1,0,1.4c0.2,0.2,0.5,0.3,0.7,0.3s0.5-0.1,0.7-0.3l1.4-1.4 c0.4-0.4,0.4-1,0-1.4S7.2,23.4,6.8,23.8z" fill="#00287f"/> <path d="M6.8,5.4C6.4,5,5.8,5,5.4,5.4s-0.4,1,0,1.4l1.4,1.4C7,8.4,7.3,8.5,7.5,8.5S8,8.4,8.2,8.2 c0.4-0.4,0.4-1,0-1.4L6.8,5.4z" fill="#00287f"/> <path d="M25.2,23.8c-0.4-0.4-1-0.4-1.4,0s-0.4,1,0,1.4l1.4,1.4c0.2,0.2,0.5,0.3,0.7,0.3s0.5-0.1,0.7-0.3 c0.4-0.4,0.4-1,0-1.4L25.2,23.8z" fill="#00287f"/> </g> </g> <g id="Layer_22"/> <g id="Layer_23"/> <g id="Layer_24"/> <g id="Layer_25"/> <g id="Wearher"/> </g>
</svg>