<!DOCTYPE svg PUBLIC "-//W3C//DTD SVG 1.1//EN" "http://www.w3.org/Graphics/SVG/1.1/DTD/svg11.dtd">
<!-- Uploaded to: SVG Repo, www.svgrepo.com, Transformed by: SVG Repo Mixer Tools -->
<svg width="256px" height="256px" viewBox="-163.84 -163.84 1351.68 1351.68" class="icon" version="1.1" xmlns="http://www.w3.org/2000/svg" fill="#000000">
<g id="SVGRepo_bgCarrier" stroke-width="0">
<path transform="translate(-163.84, -163.84), scale(42.24)" d="M16,30.14627796517951C18.89095638088023,30.058575872375616,21.33847302412979,28.268083277512478,23.65805848025133,26.54041323812888C25.950213622099163,24.83317380285021,28.05800492852924,22.906155822024644,29.22405678597029,20.29675651386417C30.490388418187532,17.46295039801872,31.742268229628188,14.129439761746863,30.46905330460207,11.298719595490967C29.214117875821024,8.508639966533877,25.523694270803706,8.091813044177306,22.974004454571734,6.401106355442039C20.579568581479485,4.813349005268579,18.831152538857925,2.192993700908312,16,1.7042485166873256C12.90815881107815,1.170500344972345,9.580656538579136,1.826791634081951,7.025696773566713,3.6479312903110994C4.459057606637817,5.4773958611954185,2.978580070108255,8.463623165811565,2.223694282337327,11.523806931005392C1.5075336304240996,14.427005316455094,1.8870373540784595,17.44431690092692,2.9312113566673013,20.246306836123715C3.9400141938600592,22.953379976619356,5.693953984953655,25.271091995975862,7.996752125678601,27.01552567926532C10.337438545429093,28.788660788426707,13.064886269676517,30.23531964649621,16,30.14627796517951" fill="#f8f4fd" strokewidth="0"/>
</g>
<g id="SVGRepo_tracerCarrier" stroke-linecap="round" stroke-linejoin="round"/>
<g id="SVGRepo_iconCarrier">
<path d="M785.334 194.943c174.789 174.787 174.789 459.179 0 633.967-174.787 174.787-459.178 174.787-633.967 0-13.206-13.205-26.22-28.336-39.807-46.314a19.672 19.672 0 0 1-2.223-20.012 19.777 19.777 0 0 1 16.54-11.442c98.838-6.698 191.601-48.753 261.234-118.386C530.853 489.014 546.472 258.475 423.392 96.51a19.553 19.553 0 0 1-2.249-19.981 19.554 19.554 0 0 1 16.54-11.497c129.587-8.759 256.325 38.583 347.651 129.911z" fill="#5b05d4"/>
<path d="M785.334 194.943c-14.266-14.268-29.484-27.325-45.354-39.399 151.302 175.925 143.723 442.269-22.987 608.98-121.85 121.85-307.044 190.195-461.161 142.154 60.038 35.511 140.886 47.603 167.101 50.984 129.417 13.067 263.464-29.816 362.401-128.753 174.789-174.787 174.789-459.179 0-633.966z" fill="#030504"/>
</g>
</svg>