<!DOCTYPE svg PUBLIC "-//W3C//DTD SVG 1.1//EN" "http://www.w3.org/Graphics/SVG/1.1/DTD/svg11.dtd">
<!-- Uploaded to: SVG Repo, www.svgrepo.com, Transformed by: SVG Repo Mixer Tools -->
<svg version="1.1" id="Layer_1" xmlns="http://www.w3.org/2000/svg" xmlns:xlink="http://www.w3.org/1999/xlink" viewBox="-117.76 -117.76 747.52 747.52" xml:space="preserve" width="256px" height="256px" fill="#000000">
<g id="SVGRepo_bgCarrier" stroke-width="0" transform="translate(0,0), scale(1)">
<path transform="translate(-117.76, -117.76), scale(46.72)" fill="#f8f4fd" d="M9.166.33a2.25 2.25 0 00-2.332 0l-5.25 3.182A2.25 2.25 0 00.5 5.436v5.128a2.25 2.25 0 001.084 1.924l5.25 3.182a2.25 2.25 0 002.332 0l5.25-3.182a2.25 2.25 0 001.084-1.924V5.436a2.25 2.25 0 00-1.084-1.924L9.166.33z" strokewidth="0"/>
</g>
<g id="SVGRepo_tracerCarrier" stroke-linecap="round" stroke-linejoin="round"/>
<g id="SVGRepo_iconCarrier"> <circle style="fill:#5b05d4;" cx="256" cy="256" r="256"/> <path style="fill:#071139;" d="M302.066,507.857C421.464,486.16,512,381.657,512,256c0-2.858-0.064-5.703-0.157-8.539 L389.327,124.945l-75.324,85.623l-77.396-77.396l-122.828,41.234L237.221,297.85l-24.605,27.969l45.592,45.594l-66.927,25.662 L302.066,507.857z"/> <path style="fill:#e0e2e5;" d="M228.38,174.406v-26.471c0-18.865,70.678-34.157,89.543-34.157H147.935 c-18.865,0-34.157,15.293-34.157,34.157v26.472H228.38V174.406z"/> <path style="fill:#FFFFFF;" d="M191.281,397.072V147.935c0-18.865-15.293-34.157-34.157-34.157h206.941 c18.865,0,34.157,15.293,34.157,34.157v249.139H191.281V397.072z"/> <path style="fill:#e0e2e5;" d="M398.222,147.934c0-18.863-15.293-34.156-34.157-34.156h-66.117v283.295h100.274V147.934z"/> <g> <path style="fill:#808183;" d="M369.778,205.145H227.556c-3.332,0-6.034-2.701-6.034-6.034c0-3.332,2.701-6.034,6.034-6.034 h142.222c3.332,0,6.034,2.701,6.034,6.034C375.811,202.443,373.11,205.145,369.778,205.145z"/> <path style="fill:#808183;" d="M369.778,233.589H227.556c-3.332,0-6.034-2.701-6.034-6.034c0-3.332,2.701-6.034,6.034-6.034 h142.222c3.332,0,6.034,2.701,6.034,6.034C375.811,230.888,373.11,233.589,369.778,233.589z"/> <path style="fill:#808183;" d="M369.778,262.034H227.556c-3.332,0-6.034-2.701-6.034-6.034s2.701-6.034,6.034-6.034h142.222 c3.332,0,6.034,2.701,6.034,6.034S373.11,262.034,369.778,262.034z"/> <path style="fill:#808183;" d="M369.778,290.478H227.556c-3.332,0-6.034-2.701-6.034-6.034s2.701-6.034,6.034-6.034h142.222 c3.332,0,6.034,2.701,6.034,6.034S373.11,290.478,369.778,290.478z"/> <path style="fill:#808183;" d="M369.778,318.923H227.556c-3.332,0-6.034-2.701-6.034-6.034s2.701-6.034,6.034-6.034h142.222 c3.332,0,6.034,2.701,6.034,6.034S373.11,318.923,369.778,318.923z"/> <path style="fill:#808183;" d="M369.778,347.367H227.556c-3.332,0-6.034-2.701-6.034-6.034s2.701-6.034,6.034-6.034h142.222 c3.332,0,6.034,2.701,6.034,6.034S373.11,347.367,369.778,347.367z"/> </g> <rect x="256" y="142.222" style="fill:#5b05d4;" width="85.333" height="28.444"/> <g> <path style="fill:#59595B;" d="M369.778,193.077H297.95v12.067h71.828c3.332,0,6.034-2.701,6.034-6.034 C375.811,195.779,373.11,193.077,369.778,193.077z"/> <path style="fill:#59595B;" d="M369.778,221.522H297.95v12.067h71.828c3.332,0,6.034-2.701,6.034-6.034 C375.811,224.223,373.11,221.522,369.778,221.522z"/> <path style="fill:#59595B;" d="M369.778,249.966H297.95v12.067h71.828c3.332,0,6.034-2.701,6.034-6.034 S373.11,249.966,369.778,249.966z"/> <path style="fill:#59595B;" d="M369.778,278.411H297.95v12.067h71.828c3.332,0,6.034-2.701,6.034-6.034 S373.11,278.411,369.778,278.411z"/> <path style="fill:#59595B;" d="M369.778,306.855H297.95v12.067h71.828c3.332,0,6.034-2.701,6.034-6.034 S373.11,306.855,369.778,306.855z"/> <path style="fill:#59595B;" d="M369.778,335.3H297.95v12.067h71.828c3.332,0,6.034-2.701,6.034-6.034S373.11,335.3,369.778,335.3z"/> </g> <rect x="297.943" y="142.222" style="fill:#110094;" width="43.391" height="28.444"/> </g>
</svg>