<?xml version="1.0" encoding="UTF-8"?>
<svg xmlns="http://www.w3.org/2000/svg" xmlns:xlink="http://www.w3.org/1999/xlink" viewBox="0 0 993.33 338.33">
  <defs>
    <style>
      .cls-1 {
        stroke: url(#linear-gradient-15);
      }

      .cls-1, .cls-2, .cls-3, .cls-4, .cls-5, .cls-6, .cls-7, .cls-8, .cls-9, .cls-10 {
        fill: none;
        stroke-linejoin: bevel;
        stroke-width: 15.37px;
      }

      .cls-2 {
        stroke: url(#linear-gradient-16);
      }

      .cls-11 {
        fill: url(#linear-gradient-2);
      }

      .cls-3 {
        stroke: url(#linear-gradient-14);
      }

      .cls-4 {
        stroke: url(#linear-gradient-10);
      }

      .cls-5 {
        stroke: url(#linear-gradient-9);
      }

      .cls-12 {
        fill: url(#linear-gradient-4);
      }

      .cls-6 {
        stroke: url(#linear-gradient-8);
      }

      .cls-7 {
        stroke: url(#linear-gradient-12);
      }

      .cls-8 {
        stroke: url(#linear-gradient-13);
      }

      .cls-13 {
        fill: url(#linear-gradient-3);
      }

      .cls-14 {
        fill: url(#linear-gradient-5);
      }

      .cls-15 {
        fill: url(#linear-gradient-6);
      }

      .cls-9 {
        stroke: url(#linear-gradient-7);
      }

      .cls-10 {
        stroke: url(#linear-gradient-11);
      }

      .cls-16 {
        fill: url(#linear-gradient);
      }
    </style>
    <linearGradient id="linear-gradient" x1="66.23" y1="54.35" x2="336.67" y2="159.31" gradientUnits="userSpaceOnUse">
      <stop offset=".19" stop-color="#00287f"/>
      <stop offset=".26" stop-color="#012681"/>
      <stop offset=".31" stop-color="#06238a"/>
      <stop offset=".36" stop-color="#0f1c9a"/>
      <stop offset=".39" stop-color="#1b13b0"/>
      <stop offset=".43" stop-color="#2a07cc"/>
      <stop offset=".45" stop-color="#3500df"/>
      <stop offset=".56" stop-color="#bf70f5"/>
      <stop offset=".61" stop-color="#f99fff"/>
      <stop offset=".63" stop-color="#fabaff"/>
      <stop offset=".66" stop-color="#fcd3ff"/>
      <stop offset=".68" stop-color="#fde6ff"/>
      <stop offset=".71" stop-color="#fef4ff"/>
      <stop offset=".75" stop-color="#fefcff"/>
      <stop offset=".82" stop-color="#fff"/>
    </linearGradient>
    <linearGradient id="linear-gradient-2" x1="49.17" y1="115.21" x2="204.34" y2="115.21" gradientUnits="userSpaceOnUse">
      <stop offset=".01" stop-color="#62007f"/>
      <stop offset=".11" stop-color="#25007f"/>
      <stop offset=".17" stop-color="#7d00ff"/>
      <stop offset=".27" stop-color="#cc7fff"/>
      <stop offset=".37" stop-color="#dee6f5"/>
      <stop offset=".41" stop-color="#d189ec"/>
      <stop offset=".45" stop-color="#be00df"/>
      <stop offset=".48" stop-color="#ba00db"/>
      <stop offset=".5" stop-color="#af00cf"/>
      <stop offset=".52" stop-color="#9c00bb"/>
      <stop offset=".55" stop-color="#83009f"/>
      <stop offset=".55" stop-color="#83009f"/>
    </linearGradient>
    <linearGradient id="linear-gradient-3" x1="129.18" y1="135.95" x2="226.79" y2="135.95" gradientUnits="userSpaceOnUse">
      <stop offset="0" stop-color="#1f4dff"/>
      <stop offset="1" stop-color="#000"/>
    </linearGradient>
    <linearGradient id="linear-gradient-4" x1="406.78" y1="-16.45" x2="677.22" y2="88.51" gradientTransform="translate(721.67 268.35) rotate(-180)" xlink:href="#linear-gradient"/>
    <linearGradient id="linear-gradient-5" x1="331.95" y1="223.95" x2="176.78" y2="223.95" xlink:href="#linear-gradient-2"/>
    <linearGradient id="linear-gradient-6" x1="251.94" y1="203.21" x2="154.33" y2="203.21" xlink:href="#linear-gradient-3"/>
    <linearGradient id="linear-gradient-7" x1="349.38" y1="173.64" x2="483.17" y2="173.64" xlink:href="#linear-gradient-3"/>
    <linearGradient id="linear-gradient-8" x1="511.35" y1="195.04" x2="526.72" y2="195.04" xlink:href="#linear-gradient-3"/>
    <linearGradient id="linear-gradient-9" x1="511.35" y1="110.49" x2="526.72" y2="110.49" xlink:href="#linear-gradient-3"/>
    <linearGradient id="linear-gradient-10" x1="557.89" y1="129.27" x2="662.27" y2="129.27" xlink:href="#linear-gradient-3"/>
    <linearGradient id="linear-gradient-11" x1="557.37" y1="178.1" x2="662.27" y2="178.1" xlink:href="#linear-gradient-3"/>
    <linearGradient id="linear-gradient-12" x1="740.33" y1="159.98" x2="844.52" y2="159.98" gradientTransform="translate(1401.67 378.24) rotate(-180)" xlink:href="#linear-gradient-3"/>
    <linearGradient id="linear-gradient-13" x1="692.52" y1="128.99" x2="796.9" y2="128.99" xlink:href="#linear-gradient-3"/>
    <linearGradient id="linear-gradient-14" x1="692" y1="177.82" x2="796.9" y2="177.82" xlink:href="#linear-gradient-3"/>
    <linearGradient id="linear-gradient-15" x1="605.7" y1="160.26" x2="709.9" y2="160.26" gradientTransform="translate(1401.67 378.24) rotate(-180)" xlink:href="#linear-gradient-3"/>
    <linearGradient id="linear-gradient-16" x1="819.07" y1="166.75" x2="952.87" y2="166.75" xlink:href="#linear-gradient-3"/>
  </defs>
  <g id="Layer_1" data-name="Layer 1">
    <path class="cls-16" d="M200.28,107.74c-22.19,18.84-32.39,39.24-41.36,56.2-2.81,5.31-8.31,8.62-14.31,8.62-29.27,0-63.15,0-91.25-.01,6.81-16.34,19.54-41.22,42.93-65.12,33.09-33.82,68.64-47.49,89.19-53.66,63.74-19.15,100.77-14.55,163.32-12.77,8.72.25-80.5,9.01-148.51,66.75Z"/>
    <path class="cls-11" d="M200.92,108.5c-.56-.31-.91-.35-1.15-.27-.23.09-.36.29-.55.43l-1.05.93-2.08,1.87c-1.34,1.3-2.71,2.57-4.02,3.89-2.61,2.66-5.16,5.39-7.54,8.26-4.79,5.71-9.17,11.77-13.02,18.16-3.87,6.37-7.31,12.99-10.7,19.63l-1.27,2.49c-.43.84-.92,1.69-1.49,2.47-1.14,1.56-2.53,2.94-4.14,4.03-1.59,1.11-3.38,1.95-5.28,2.44-.94.27-1.91.41-2.89.52-1,.07-1.92.08-2.85.1-7.46.17-14.92.29-22.39.51l-22.39.67c-14.92.57-29.85,1.1-44.77,2.02h-.01c-2.22.09-4.09-1.64-4.17-3.86-.02-.63.1-1.23.33-1.77l.04-.08c6.32-14.27,14.17-27.83,23.42-40.32,9.23-12.5,19.88-23.92,31.62-33.97,2.88-2.58,5.96-4.92,8.97-7.33,1.53-1.17,3.11-2.29,4.66-3.44.78-.57,1.55-1.15,2.34-1.7l2.4-1.62c1.61-1.06,3.17-2.2,4.81-3.2l4.9-3.06c3.33-1.94,6.65-3.89,10.07-5.66,13.6-7.2,27.99-12.8,42.74-16.88-14.56,4.74-28.61,10.95-41.74,18.68-3.3,1.9-6.49,3.98-9.69,6.03l-4.7,3.24c-1.58,1.06-3.06,2.25-4.6,3.37l-2.28,1.7c-.75.58-1.48,1.19-2.22,1.78-1.47,1.2-2.97,2.37-4.42,3.58-2.85,2.51-5.76,4.93-8.47,7.59-11.06,10.37-20.91,21.95-29.32,34.47-8.42,12.51-15.4,25.94-20.86,39.93l-3.8-5.71h.01c14.92.92,29.85,1.46,44.77,2.03l22.38.68c7.46.23,14.92.34,22.38.52.94.02,1.88.05,2.74.03.88-.06,1.77-.15,2.63-.35,1.74-.37,3.41-1.07,4.92-2.02,1.52-.94,2.84-2.21,3.94-3.63.55-.72,1.02-1.47,1.46-2.28l1.34-2.46c3.57-6.55,7.18-13.1,11.23-19.39,4-6.31,8.37-12.38,13.24-18.05,2.41-2.85,4.99-5.56,7.62-8.2,1.32-1.32,2.7-2.57,4.05-3.86l2.1-1.85,1.05-.92c.16-.17.38-.28.5-.49.11-.23.12-.58-.1-1.19.42-.36,1.05-.31,1.41.12.36.42.31,1.05-.12,1.41Z"/>
    <path class="cls-13" d="M141.21,158.44c-.58-2.34-.9-4.74-1.04-7.15-.17-2.42-.14-4.84,0-7.28.07-1.23.21-2.43.36-3.66.12-1.24.33-2.45.58-3.66l.36-1.84c.13-.61.23-1.25.43-1.83.37-1.18,1.33-1.98,2.06-2.92,5.54-7.75,12.38-14.85,20.57-20.17,4.1-2.64,8.41-4.93,12.92-6.76,4.51-1.81,9.21-3.16,13.97-4.04,9.54-1.77,19.28-1.66,28.73.12l6.64,14.54-18.89,32.55-4.72,8.14c-.77,1.36-1.65,2.67-2.17,4.18-.3.73-1.01,1.23-1.67,1.75l-1.98,1.57c-5.32,4.16-10.8,8.24-16.82,12,.28-7.09,1.1-13.87,2.07-20.56l.38-2.5c.12-.84.2-1.69.69-2.32,1.05-1.2,1.75-2.61,2.56-3.96l4.72-8.14,18.89-32.55,6.64,14.54c-7.1-1.34-14.48-1.41-21.5-.1-3.51.65-6.95,1.64-10.25,2.96-3.3,1.34-6.44,3.02-9.42,4.93-.39.22-.75.47-1.1.75l-1.07.79c-.71.54-1.45,1.03-2.13,1.6l-2.01,1.76-1.01.88-.94.96-1.89,1.91-1.76,2.06-.88,1.03-.82,1.09c-.53.74-1.13,1.43-1.61,2.2-.43.82-.63,1.77-1.43,2.34-.83.55-1.64,1.15-2.47,1.74l-1.25.91c-.39.32-.81.64-1.23.95-.83.64-1.69,1.28-2.48,1.98-3.34,2.72-6.6,5.75-9.99,9.16Z"/>
    <path class="cls-12" d="M180.85,231.42c22.19-18.84,32.39-39.24,41.36-56.2,2.81-5.31,8.31-8.62,14.31-8.62,29.27,0,63.15,0,91.25.01-6.81,16.34-19.54,41.22-42.93,65.12-33.09,33.82-68.64,47.49-89.19,53.66-63.74,19.15-100.77,14.55-163.32,12.77-8.72-.25,80.5-9.01,148.51-66.75Z"/>
    <path class="cls-14" d="M180.2,230.66c.56.31.91.35,1.15.27.23-.09.36-.29.55-.43l1.04-.93,2.08-1.87c1.34-1.3,2.71-2.57,4.02-3.89,2.61-2.66,5.16-5.39,7.54-8.26,4.79-5.71,9.17-11.77,13.02-18.16,3.87-6.37,7.31-12.99,10.7-19.63l1.27-2.49c.43-.84.92-1.69,1.49-2.47,1.14-1.56,2.53-2.94,4.14-4.03,1.59-1.11,3.38-1.95,5.28-2.44.94-.27,1.91-.41,2.89-.52,1-.07,1.92-.08,2.85-.1,7.46-.17,14.92-.29,22.39-.51l22.39-.67c14.92-.57,29.85-1.1,44.77-2.02h.01c2.22-.09,4.09,1.64,4.17,3.86.02.63-.1,1.23-.33,1.77l-.04.08c-6.32,14.27-14.17,27.83-23.42,40.32-9.23,12.5-19.88,23.92-31.62,33.97-2.88,2.58-5.96,4.92-8.97,7.33-1.53,1.17-3.11,2.29-4.66,3.44-.78.57-1.55,1.15-2.34,1.7l-2.4,1.62c-1.61,1.06-3.17,2.2-4.81,3.2l-4.9,3.06c-3.33,1.94-6.65,3.89-10.07,5.66-13.6,7.2-27.99,12.8-42.74,16.88,14.56-4.74,28.61-10.95,41.74-18.68,3.3-1.9,6.49-3.98,9.69-6.03l4.7-3.24c1.58-1.06,3.06-2.25,4.6-3.37l2.28-1.7c.75-.58,1.48-1.19,2.22-1.78,1.47-1.2,2.97-2.37,4.42-3.58,2.85-2.51,5.76-4.93,8.47-7.59,11.06-10.37,20.91-21.95,29.32-34.47,8.42-12.51,15.4-25.94,20.86-39.93l3.8,5.71h-.01c-14.92-.92-29.85-1.46-44.77-2.03l-22.38-.68c-7.46-.23-14.92-.34-22.38-.52-.94-.02-1.88-.05-2.74-.03-.88.06-1.77.15-2.63.35-1.74.37-3.41,1.07-4.92,2.02-1.52.94-2.84,2.21-3.94,3.63-.55.72-1.02,1.47-1.46,2.28l-1.34,2.46c-3.57,6.55-7.18,13.1-11.23,19.39-4,6.31-8.37,12.38-13.24,18.05-2.41,2.85-4.99,5.56-7.62,8.2-1.32,1.32-2.7,2.57-4.05,3.86l-2.1,1.85-1.05.92c-.16.17-.38.28-.5.49-.11.23-.12.58.1,1.19-.42.36-1.05.31-1.41-.12-.36-.42-.31-1.05.12-1.41Z"/>
    <path class="cls-15" d="M239.91,180.72c.58,2.34.9,4.74,1.04,7.15.17,2.42.14,4.84,0,7.28-.07,1.23-.21,2.43-.36,3.66-.12,1.24-.33,2.45-.58,3.66l-.36,1.84c-.13.61-.23,1.25-.43,1.83-.37,1.18-1.33,1.98-2.06,2.92-5.54,7.75-12.38,14.85-20.57,20.17-4.1,2.64-8.41,4.93-12.92,6.76-4.51,1.81-9.21,3.16-13.97,4.04-9.54,1.77-19.28,1.66-28.73-.12l-6.64-14.54,18.89-32.55,4.72-8.14c.77-1.36,1.65-2.67,2.17-4.18.3-.73,1.01-1.23,1.67-1.75l1.98-1.57c5.32-4.16,10.8-8.24,16.82-12-.28,7.09-1.1,13.87-2.07,20.56l-.38,2.5c-.12.84-.2,1.69-.69,2.32-1.05,1.2-1.75,2.61-2.56,3.96l-4.72,8.14-18.89,32.55-6.64-14.54c7.1,1.34,14.48,1.41,21.5.1,3.51-.65,6.95-1.64,10.25-2.96,3.3-1.34,6.44-3.02,9.42-4.93.39-.22.75-.47,1.1-.75l1.07-.79c.71-.54,1.45-1.03,2.13-1.6l2.01-1.76,1.01-.88.94-.96,1.89-1.91,1.76-2.06.88-1.03.82-1.09c.53-.74,1.13-1.43,1.61-2.2.43-.82.63-1.77,1.43-2.34.83-.55,1.64-1.15,2.47-1.74l1.25-.91c.39-.32.81-.64,1.23-.95.83-.64,1.69-1.28,2.48-1.98,3.34-2.72,6.6-5.75,9.99-9.16Z"/>
  </g>
  <g id="Layer_3" data-name="Layer 3">
    <path class="cls-9" d="M448.27,185.03v-77.27c-59.66,21.62-74.87,39.24-98.89,92.09h97.69c4.4,25.62,12.41,32.43,33.63,39.64"/>
    <path class="cls-6" d="M519.03,140.98v108.1"/>
    <path class="cls-5" d="M519.03,121.77v-22.55"/>
    <path class="cls-4" d="M662.27,99.21c-69.87,0-96.69,28.96-96.69,67.8"/>
    <path class="cls-10" d="M557.37,178.1h104.9"/>
    <path class="cls-7" d="M557.37,239.48c69.46,2,96.29-13.61,96.29-50.28"/>
    <path class="cls-8" d="M796.9,98.93c-69.87,0-96.69,28.96-96.69,67.8"/>
    <path class="cls-3" d="M692,177.82h104.9"/>
    <path class="cls-1" d="M692,239.19c69.46,2,96.29-13.61,96.29-50.28"/>
    <path class="cls-2" d="M917.97,178.14v-77.27c-59.66,21.62-74.87,39.24-98.89,92.09h97.69c4.4,25.62,12.41,32.43,33.63,39.64"/>
  </g>
</svg>