<?xml version="1.0" encoding="UTF-8"?>
<svg id="Layer_5" data-name="Layer 5" xmlns="http://www.w3.org/2000/svg" xmlns:xlink="http://www.w3.org/1999/xlink" viewBox="0 0 378.25 359.17">
  <defs>
    <style>
      .cls-1 {
        fill: url(#linear-gradient-2);
      }

      .cls-2 {
        fill: url(#linear-gradient-10);
      }

      .cls-3 {
        fill: url(#linear-gradient-4);
      }

      .cls-4 {
        fill: url(#linear-gradient-3);
      }

      .cls-5 {
        fill: url(#linear-gradient-5);
      }

      .cls-6 {
        fill: url(#linear-gradient-8);
      }

      .cls-7 {
        fill: url(#linear-gradient-7);
      }

      .cls-8 {
        fill: url(#linear-gradient-9);
      }

      .cls-9 {
        fill: url(#linear-gradient-6);
      }

      .cls-10 {
        fill: url(#linear-gradient);
      }
    </style>
    <linearGradient id="linear-gradient" x1="48.5" y1="69.58" x2="339.44" y2="182.5" gradientUnits="userSpaceOnUse">
      <stop offset=".19" stop-color="#00287f"/>
      <stop offset=".26" stop-color="#012681"/>
      <stop offset=".31" stop-color="#06238a"/>
      <stop offset=".36" stop-color="#0f1c9a"/>
      <stop offset=".39" stop-color="#1b13b0"/>
      <stop offset=".43" stop-color="#2a07cc"/>
      <stop offset=".45" stop-color="#3500df"/>
      <stop offset=".56" stop-color="#bf70f5"/>
      <stop offset=".61" stop-color="#f99fff"/>
      <stop offset=".63" stop-color="#fabaff"/>
      <stop offset=".66" stop-color="#fcd3ff"/>
      <stop offset=".68" stop-color="#fde6ff"/>
      <stop offset=".71" stop-color="#fef4ff"/>
      <stop offset=".75" stop-color="#fefcff"/>
      <stop offset=".82" stop-color="#fff"/>
    </linearGradient>
    <linearGradient id="linear-gradient-2" x1="59.63" y1="71.72" x2="330.06" y2="176.68" xlink:href="#linear-gradient"/>
    <linearGradient id="linear-gradient-3" x1="29.86" y1="129.29" x2="203.29" y2="129.29" gradientUnits="userSpaceOnUse">
      <stop offset=".01" stop-color="#62007f"/>
      <stop offset=".11" stop-color="#25007f"/>
      <stop offset=".17" stop-color="#7d00ff"/>
      <stop offset=".27" stop-color="#cc7fff"/>
      <stop offset=".37" stop-color="#dee6f5"/>
      <stop offset=".41" stop-color="#d189ec"/>
      <stop offset=".45" stop-color="#be00df"/>
      <stop offset=".48" stop-color="#ba00db"/>
      <stop offset=".5" stop-color="#af00cf"/>
      <stop offset=".52" stop-color="#9c00bb"/>
      <stop offset=".55" stop-color="#83009f"/>
      <stop offset=".55" stop-color="#83009f"/>
    </linearGradient>
    <linearGradient id="linear-gradient-4" x1="42.56" y1="132.58" x2="197.73" y2="132.58" xlink:href="#linear-gradient-3"/>
    <linearGradient id="linear-gradient-5" x1="122.57" y1="153.31" x2="220.18" y2="153.31" gradientUnits="userSpaceOnUse">
      <stop offset="0" stop-color="#1f4dff"/>
      <stop offset="1" stop-color="#000"/>
    </linearGradient>
    <linearGradient id="linear-gradient-6" x1="-267.9" y1="-9.29" x2="23.04" y2="103.62" gradientTransform="translate(51.51 295.02) rotate(-180)" xlink:href="#linear-gradient"/>
    <linearGradient id="linear-gradient-7" x1="-256.77" y1="-7.15" x2="13.66" y2="97.81" gradientTransform="translate(51.51 295.02) rotate(-180)" xlink:href="#linear-gradient"/>
    <linearGradient id="linear-gradient-8" x1="164.67" y1="241.27" x2="338.1" y2="241.27" xlink:href="#linear-gradient-3"/>
    <linearGradient id="linear-gradient-9" x1="325.34" y1="241.32" x2="170.17" y2="241.32" xlink:href="#linear-gradient-3"/>
    <linearGradient id="linear-gradient-10" x1="245.33" y1="220.58" x2="147.73" y2="220.58" xlink:href="#linear-gradient-5"/>
  </defs>
  <path class="cls-10" d="M33.98,198.41l4.91-11.77c10.65-25.56,25.69-48.37,44.7-67.8,25.72-26.29,56.95-45.09,92.82-55.86,43.66-13.12,74.7-14.92,101.75-14.92,13.04,0,26.56.49,40.88,1.01,7.47.27,15.2.55,23.39.79,5.61.16,8.5,4.18,8.82,7.86.11,1.25.24,7.57-7.73,9.39-.81.18-2,.43-3.54.74-71.48,14.57-116.02,42.71-140.8,63.75-19.97,16.96-29.64,35.29-38.17,51.46l-1.18,2.23c-4.29,8.11-12.65,13.15-21.83,13.15l-104.01-.02Z"/>
  <path class="cls-1" d="M193.67,125.11c-22.19,18.84-32.39,39.24-41.36,56.2-2.81,5.31-8.31,8.62-14.31,8.62-29.27,0-63.15,0-91.25-.01,6.81-16.34,19.54-41.22,42.93-65.12,33.09-33.82,68.64-47.49,89.19-53.66,63.74-19.15,100.77-14.55,163.32-12.77,8.72.25-80.5,9.01-148.51,66.75Z"/>
  <path class="cls-4" d="M138,199.43c-.54-.44-1.08-.83-1.63-.97-.54-.07-1.08-.02-1.63-.03h-3.25s-6.5.03-6.5.03l-13,.04-26,.08-52.01.5c-.37,0-.67-.29-.68-.66,0-.09.02-.18.05-.25v-.02c3.18-7.87,6.17-15.85,9.83-23.58,3.61-7.74,7.68-15.27,12.17-22.56,4.48-7.29,9.4-14.32,14.75-21.03,2.65-3.37,5.46-6.62,8.3-9.83,2.88-3.19,5.86-6.27,8.9-9.31,12.19-12.11,25.93-22.73,40.76-31.55,14.81-8.88,30.77-15.8,47.25-20.96,1.98-.62,4.1.49,4.72,2.47h0s.02.08.02.08l5.03,16.25c.64,2.07-.52,4.26-2.58,4.91h0s-.06.02-.06.02c-12.76,3.93-25.17,8.97-36.88,15.33-11.74,6.29-22.82,13.79-33.05,22.32-10.17,8.6-19.58,18.14-27.78,28.64-8.23,10.48-15.4,21.8-21.39,33.73l-3.4-5.47,39.98.25,19.99.16,9.99.1,5,.05,2.5.03h.62c.12,0,.25,0,.37,0,.24-.02.49-.05.72-.11.95-.21,1.82-.76,2.44-1.51.16-.19.3-.39.42-.61.05-.07.17-.31.27-.48l.3-.55,1.19-2.2c1.58-2.93,3.2-5.88,4.84-8.81,3.32-5.85,6.83-11.64,10.72-17.19,7.76-11.11,17.03-21.2,27.45-29.82l.05-.04c.94-.77,2.32-.64,3.1.29h0s10.81,13.13,10.81,13.13l.04.04c.68.83.57,2.06-.26,2.74-5.94,4.9-11.48,10.3-16.48,16.2-2.5,2.94-4.85,6.02-7.12,9.16-2.23,3.17-4.38,6.4-6.43,9.71-2.04,3.31-3.99,6.69-5.91,10.08l-2.86,5.12c-.95,1.68-1.87,3.48-3.09,5.08-2.42,3.19-5.58,5.79-9.14,7.52-3.57,1.71-7.53,2.54-11.43,2.45v1ZM138,198.43c3.91-.12,7.76-1.15,11.16-2.99,3.38-1.87,6.29-4.53,8.43-7.68,1.07-1.57,1.88-3.3,2.77-5.06l2.64-5.24c1.78-3.49,3.59-6.97,5.51-10.4,1.93-3.42,3.95-6.81,6.11-10.11,2.19-3.28,4.48-6.51,6.93-9.61,4.9-6.22,10.4-11.97,16.34-17.24l-.23,2.79-11.2-12.8,3.15.26c-9.88,8.65-18.53,18.61-25.74,29.56-3.62,5.46-6.94,11.13-10.07,16.94-1.56,2.91-3.09,5.84-4.61,8.81l-1.14,2.22-.29.56c-.1.2-.17.33-.33.62-.28.52-.61,1-.97,1.47-1.45,1.85-3.52,3.21-5.81,3.79-.57.15-1.15.24-1.74.3-.29.03-.59.03-.88.05h-.63s-2.5.03-2.5.03l-5,.05-9.99.1-19.99.15-39.98.23c-2.09.01-3.79-1.67-3.8-3.76,0-.59.13-1.16.37-1.66l.03-.05c6.07-12.46,13.36-24.35,21.93-35.28,8.51-10.98,18.26-20.95,28.82-29.95,5.3-4.48,10.86-8.66,16.59-12.58,1.45-.96,2.87-1.96,4.34-2.88l4.41-2.76c2.99-1.76,6-3.51,9.08-5.11,12.25-6.54,25.2-11.7,38.46-15.69l-2.65,4.93-4.75-16.33,4.74,2.55c-16.06,4.66-31.58,11.13-46.23,19.23-7.32,4.07-14.39,8.58-21.18,13.5-6.8,4.91-13.33,10.21-19.5,15.92-3.07,2.87-6.1,5.79-9.03,8.8-2.9,3.05-5.77,6.13-8.48,9.35-5.49,6.39-10.58,13.13-15.25,20.16-4.7,7.01-8.93,14.35-12.74,21.9-3.85,7.52-7.06,15.39-10.48,23.18l-.62-.93,52.01.51,26,.09,13,.05,6.5.02h3.25c.54,0,1.08.05,1.63-.02.54-.14,1.08-.53,1.63-.97v1Z"/>
  <path class="cls-3" d="M194.31,125.87c-.56-.31-.91-.35-1.15-.27-.23.09-.36.29-.55.43l-1.05.93-2.08,1.87c-1.34,1.3-2.71,2.57-4.02,3.89-2.61,2.66-5.16,5.39-7.54,8.26-4.79,5.71-9.17,11.77-13.02,18.16-3.87,6.37-7.31,12.99-10.7,19.63l-1.27,2.49c-.43.84-.92,1.69-1.49,2.47-1.14,1.56-2.53,2.94-4.14,4.03-1.59,1.11-3.38,1.95-5.28,2.44-.94.27-1.91.41-2.89.52-1,.07-1.92.08-2.85.1-7.46.17-14.92.29-22.39.51l-22.39.67c-14.92.57-29.85,1.1-44.77,2.02h-.01c-2.22.09-4.09-1.64-4.17-3.86-.02-.63.1-1.23.33-1.77l.04-.08c6.32-14.27,14.17-27.83,23.42-40.32,9.23-12.5,19.88-23.92,31.62-33.97,2.88-2.58,5.96-4.92,8.97-7.33,1.53-1.17,3.11-2.29,4.66-3.44.78-.57,1.55-1.15,2.34-1.7l2.4-1.62c1.61-1.06,3.17-2.2,4.81-3.2l4.9-3.06c3.33-1.94,6.65-3.89,10.07-5.66,13.6-7.2,27.99-12.8,42.74-16.88-14.56,4.74-28.61,10.95-41.74,18.68-3.3,1.9-6.49,3.98-9.69,6.03l-4.7,3.24c-1.58,1.06-3.06,2.25-4.6,3.37l-2.28,1.7c-.75.58-1.48,1.19-2.22,1.78-1.47,1.2-2.97,2.37-4.42,3.58-2.85,2.51-5.76,4.93-8.47,7.59-11.06,10.37-20.91,21.95-29.32,34.47-8.42,12.51-15.4,25.94-20.86,39.93l-3.8-5.71h.01c14.92.92,29.85,1.46,44.77,2.03l22.38.68c7.46.23,14.92.34,22.38.52.94.02,1.88.05,2.74.03.88-.06,1.77-.15,2.63-.35,1.74-.37,3.41-1.07,4.92-2.02,1.52-.94,2.84-2.21,3.94-3.63.55-.72,1.02-1.47,1.46-2.28l1.34-2.46c3.57-6.55,7.18-13.1,11.23-19.39,4-6.31,8.37-12.38,13.24-18.05,2.41-2.85,4.99-5.56,7.62-8.2,1.32-1.32,2.7-2.57,4.05-3.86l2.1-1.85,1.05-.92c.16-.17.38-.28.5-.49.11-.23.12-.58-.1-1.19.42-.36,1.05-.31,1.41.12.36.42.31,1.05-.12,1.41Z"/>
  <path class="cls-5" d="M134.6,175.81c-.58-2.34-.9-4.74-1.04-7.15-.17-2.42-.14-4.84,0-7.28.07-1.23.21-2.43.36-3.66.12-1.24.33-2.45.58-3.66l.36-1.84c.13-.61.23-1.25.43-1.83.37-1.18,1.33-1.98,2.06-2.92,5.54-7.75,12.38-14.85,20.57-20.17,4.1-2.64,8.41-4.93,12.92-6.76,4.51-1.81,9.21-3.16,13.97-4.04,9.54-1.77,19.28-1.66,28.73.12l6.64,14.54-18.89,32.55-4.72,8.14c-.77,1.36-1.65,2.67-2.17,4.18-.3.73-1.01,1.23-1.67,1.75l-1.98,1.57c-5.32,4.16-10.8,8.24-16.82,12,.28-7.09,1.1-13.87,2.07-20.56l.38-2.5c.12-.84.2-1.69.69-2.32,1.05-1.2,1.75-2.61,2.56-3.96l4.72-8.14,18.89-32.55,6.64,14.54c-7.1-1.34-14.48-1.41-21.5-.1-3.51.65-6.95,1.64-10.25,2.96-3.3,1.34-6.44,3.02-9.42,4.93-.39.22-.75.47-1.1.75l-1.07.79c-.71.54-1.45,1.03-2.13,1.6l-2.01,1.76-1.01.88-.94.96-1.89,1.91-1.76,2.06-.88,1.03-.82,1.09c-.53.74-1.13,1.43-1.61,2.2-.43.82-.63,1.77-1.43,2.34-.83.55-1.64,1.15-2.47,1.74l-1.25.91c-.39.32-.81.64-1.23.95-.83.64-1.69,1.28-2.48,1.98-3.34,2.72-6.6,5.75-9.99,9.16Z"/>
  <path class="cls-9" d="M89.75,325.84c-13.05,0-26.57-.49-40.88-1.01-7.47-.27-15.2-.55-23.38-.79-5.61-.16-8.5-4.18-8.82-7.86-.11-1.25-.24-7.57,7.73-9.39.81-.18,2-.43,3.54-.74,71.48-14.57,116.02-42.71,140.8-63.75,19.97-16.96,29.64-35.29,38.17-51.46l1.18-2.23c4.29-8.11,12.65-13.14,21.83-13.14l104.01.02-4.91,11.77c-10.65,25.56-25.69,48.37-44.7,67.8-25.73,26.29-56.96,45.09-92.82,55.86-43.66,13.12-74.7,14.92-101.74,14.92Z"/>
  <path class="cls-7" d="M174.24,248.79c22.19-18.84,32.39-39.24,41.36-56.2,2.81-5.31,8.31-8.62,14.31-8.62,29.27,0,63.15,0,91.25.01-6.81,16.34-19.54,41.22-42.93,65.12-33.09,33.82-68.64,47.49-89.19,53.66-63.74,19.15-100.77,14.55-163.32,12.77-8.72-.25,80.5-9.01,148.51-66.75Z"/>
  <path class="cls-6" d="M191.04,311.05c.03-.89.04-1.68-.15-2.16l-.62-2.03-1.24-4.06-2.48-8.14s0-.06.03-.06c12.99-4.01,25.66-9.13,37.59-15.65,11.95-6.48,23.12-14.32,33.44-23.11,10.23-8.9,19.6-18.78,27.75-29.57,8.19-10.76,15.13-22.43,20.89-34.61l1.72,2.76-39.98.71-19.99.33-9.99.15-5,.07-2.5.04h-.62c-.12.02-.24.02-.36.04-.24.03-.48.07-.71.14-.93.25-1.75.82-2.31,1.57-.14.19-.27.39-.38.6l-.53,1.04-1.13,2.23c-1.5,2.98-3.06,5.95-4.65,8.92-3.2,5.93-6.63,11.8-10.41,17.46-3.77,5.67-7.93,11.11-12.45,16.26-4.53,5.13-9.45,9.92-14.63,14.38-1.67,1.43-4.18,1.24-5.62-.43h0s-.02-.03-.02-.03l-11.05-12.93c-1.45-1.69-1.25-4.24.43-5.69l.04-.03c6.05-5.23,11.64-10.95,16.63-17.18,2.52-3.1,4.87-6.34,7.1-9.68,2.23-3.33,4.35-6.76,6.36-10.28,2.02-3.51,3.96-7.09,5.89-10.72l1.45-2.73c.5-.93.91-1.75,1.55-2.85,1.2-2.07,2.66-3.99,4.34-5.7,3.35-3.43,7.59-5.98,12.18-7.34,2.29-.69,4.67-1.08,7.06-1.18,1.26-.06,2.22-.03,3.26-.03h3.09s49.46.29,49.46.29c16.49.12,32.97.17,49.46.37h.07c1.83.02,3.29,1.52,3.27,3.35,0,.44-.1.88-.27,1.26l-5.02,11.72c-1.73,3.95-3.5,7.88-5.44,11.73-3.83,7.72-8.11,15.21-12.84,22.41-4.74,7.19-9.9,14.09-15.48,20.64-2.76,3.3-5.68,6.46-8.62,9.58-2.98,3.1-6.06,6.09-9.18,9.03-12.59,11.66-26.6,21.75-41.58,30-7.5,4.11-15.23,7.76-23.13,10.95-7.9,3.16-16.03,5.86-24.21,8.1l-.46.13ZM192.93,310.4c7.59-2.56,15-5.46,22.26-8.79,7.72-3.51,15.22-7.45,22.45-11.83,14.48-8.72,27.9-19.12,39.86-30.97,2.98-2.97,5.92-5.98,8.75-9.09,2.8-3.14,5.56-6.31,8.17-9.6,5.27-6.54,10.11-13.42,14.53-20.54,4.47-7.1,8.48-14.47,12.06-22.05,1.81-3.78,3.46-7.63,5.06-11.5l4.79-11.82,3.07,4.61c-16.49.19-32.97.24-49.46.35l-49.46.26h-3.09c-1.02,0-2.12,0-2.92.04-1.73.08-3.45.37-5.1.88-3.31,1-6.36,2.84-8.75,5.33-1.2,1.24-2.25,2.63-3.11,4.12-.41.67-.92,1.7-1.39,2.58l-1.44,2.74c-1.93,3.66-3.9,7.34-5.97,10.98-2.07,3.65-4.27,7.25-6.61,10.77-2.33,3.53-4.82,6.98-7.48,10.29-1.3,1.68-2.71,3.27-4.08,4.9-1.44,1.56-2.84,3.17-4.36,4.66-2.95,3.07-6.13,5.9-9.33,8.69l.47-5.73,10.96,13-5.65-.46c4.95-4.19,9.61-8.71,13.97-13.51,4.37-4.79,8.43-9.87,12.14-15.23,3.72-5.35,7.14-10.94,10.38-16.67l4.8-8.69,1.2-2.19.65-1.17c.29-.52.64-1.01,1.01-1.48,1.51-1.86,3.63-3.2,5.95-3.74.58-.15,1.16-.22,1.75-.27.29-.03.59-.02.88-.03h.63s2.5.05,2.5.05l5,.08,9.99.15,19.99.33,39.98.72h.07c1.05.02,1.88.88,1.86,1.93,0,.3-.08.59-.21.83-6.3,12.21-13.82,23.76-22.43,34.4-4.29,5.33-8.87,10.42-13.7,15.26-4.84,4.82-9.91,9.4-15.16,13.76-10.56,8.64-21.93,16.29-34.03,22.55-6.04,3.14-12.18,6.1-18.5,8.62-6.31,2.55-12.74,4.79-19.25,6.76l.03-.06,2.41,8.15,1.21,4.08.61,2.04c.16.75.64.99,1.08,1.16l.96.36Z"/>
  <path class="cls-8" d="M173.59,248.02c.56.31.91.35,1.15.27.23-.09.36-.29.55-.43l1.05-.93,2.08-1.87c1.34-1.3,2.71-2.57,4.02-3.89,2.61-2.66,5.16-5.39,7.54-8.26,4.79-5.71,9.17-11.77,13.02-18.16,3.87-6.37,7.31-12.99,10.7-19.63l1.27-2.49c.43-.84.92-1.69,1.49-2.47,1.14-1.56,2.53-2.94,4.14-4.03,1.59-1.11,3.38-1.95,5.28-2.44.94-.27,1.91-.41,2.89-.52,1-.07,1.92-.08,2.85-.1,7.46-.17,14.92-.29,22.39-.51l22.39-.67c14.92-.57,29.85-1.1,44.77-2.02h.01c2.22-.09,4.09,1.64,4.17,3.86.02.63-.1,1.23-.33,1.77l-.04.08c-6.32,14.27-14.17,27.83-23.42,40.32-9.23,12.5-19.88,23.92-31.62,33.97-2.88,2.58-5.96,4.92-8.97,7.33-1.53,1.17-3.11,2.29-4.66,3.44-.78.57-1.55,1.15-2.34,1.7l-2.4,1.62c-1.61,1.06-3.17,2.2-4.81,3.2l-4.9,3.06c-3.33,1.94-6.65,3.89-10.07,5.66-13.6,7.2-27.99,12.8-42.74,16.88,14.56-4.74,28.61-10.95,41.74-18.68,3.3-1.9,6.49-3.97,9.69-6.03l4.7-3.24c1.58-1.06,3.06-2.25,4.6-3.37l2.28-1.7c.75-.58,1.48-1.19,2.22-1.78,1.47-1.2,2.97-2.37,4.42-3.58,2.85-2.51,5.76-4.93,8.47-7.59,11.06-10.37,20.91-21.95,29.32-34.47,8.42-12.51,15.4-25.94,20.86-39.93l3.8,5.71h-.01c-14.92-.92-29.85-1.46-44.77-2.03l-22.38-.68c-7.46-.23-14.92-.34-22.38-.52-.94-.02-1.88-.05-2.74-.03-.88.06-1.77.15-2.63.35-1.74.37-3.41,1.07-4.92,2.02-1.52.94-2.84,2.21-3.94,3.63-.55.72-1.02,1.47-1.46,2.28l-1.34,2.46c-3.57,6.55-7.18,13.1-11.23,19.39-4,6.31-8.37,12.38-13.24,18.05-2.41,2.85-4.99,5.56-7.62,8.2-1.32,1.32-2.7,2.57-4.05,3.86l-2.1,1.85-1.05.92c-.16.17-.38.28-.5.49-.11.23-.12.58.1,1.19-.42.36-1.05.31-1.41-.12s-.31-1.05.12-1.41Z"/>
  <path class="cls-2" d="M233.31,198.08c.58,2.34.9,4.74,1.04,7.15.17,2.42.14,4.84,0,7.28-.07,1.23-.21,2.43-.36,3.66-.12,1.24-.33,2.45-.58,3.66l-.36,1.84c-.13.61-.23,1.25-.43,1.83-.37,1.18-1.33,1.98-2.06,2.92-5.54,7.75-12.38,14.85-20.57,20.17-4.1,2.64-8.41,4.93-12.92,6.76-4.51,1.81-9.21,3.16-13.97,4.04-9.54,1.77-19.28,1.66-28.73-.12l-6.64-14.54,18.89-32.55,4.72-8.14c.77-1.36,1.65-2.67,2.17-4.18.3-.73,1.01-1.23,1.67-1.75l1.98-1.57c5.32-4.16,10.8-8.24,16.82-12-.28,7.09-1.1,13.87-2.07,20.56l-.38,2.5c-.12.84-.2,1.69-.69,2.32-1.05,1.2-1.75,2.61-2.56,3.96l-4.72,8.14-18.89,32.55-6.64-14.54c7.1,1.34,14.48,1.41,21.5.1,3.51-.65,6.95-1.64,10.25-2.96,3.3-1.34,6.44-3.02,9.42-4.93.39-.22.75-.47,1.1-.75l1.07-.79c.71-.54,1.45-1.03,2.13-1.6l2.01-1.76,1.01-.88.94-.96,1.89-1.91,1.76-2.06.88-1.03.82-1.09c.53-.74,1.13-1.43,1.61-2.2.43-.82.63-1.77,1.43-2.34.83-.55,1.64-1.15,2.47-1.74l1.25-.91c.39-.32.81-.64,1.23-.95.83-.64,1.69-1.28,2.48-1.98,3.34-2.72,6.6-5.75,9.99-9.16Z"/>
</svg>